General
Metal.Hurlant.S01E05.Pledge.of.Anya.720p.AC3.2.0.x264.mkv
Format                                   : Matroska
Format version                           : Version 2
File size                                : 621 MiB
Duration                                 : 22mn 33s
Overall bit rate                         : 3 850 Kbps

Video
ID                                       : 1
Format                                   : AVC
Format/Info                              : Advanced Video Codec
Format profile                           : High@L4.1
Format settings, CABAC                   : Yes
Format settings, ReFrames                : 9 frames
Codec ID                                 : V_MPEG4/ISO/AVC
Duration                                 : 22mn 33s
Bit rate                                 : 3 325 Kbps
Width                                    : 1 280 pixels
Height                                   : 720 pixels
Display aspect ratio                     : 16:9
Frame rate mode                          : Constant
Frame rate                               : 25.000 fps
Color space                              : YUV
Chroma subsampling                       : 4:2:0
Bit depth                                : 8 bits
Scan type                                : Progressive
Bits/(Pixel*Frame)                       : 0.144
Stream size                              : 537 MiB (86%)

Audio
ID                                       : 2
Format                                   : AC-3
Format/Info                              : Audio Coding 3
Mode extension                           : CM (complete main)
Format settings, Endianness              : Big
Codec ID                                 : A_AC3
Duration                                 : 22mn 33s
Bit rate mode                            : Constant
Bit rate                                 : 448 Kbps
Channel(s)                               : 2 channels
Channel positions                        : Front: L R
Sampling rate                            : 48.0 KHz
Bit depth                                : 16 bits
Compression mode                         : Lossy
Stream size                              : 72.3 MiB (12%)

Hail, Master Tozz!
The last two episodes of Metal Hurlant!
It's up to you now!

Enjoy and seed it, buddies!
@helder1965